{
  "accessors": [
    {
      "bufferView": 2,
      "componentType": 5126,
      "count": 65532,
      "max": [
        2.5538179874420166,
        1.8824050426483154,
        0.38857200741767883
      ],
      "min": [
        -2.2287559509277344,
        -1.8324860334396362,
        -0.14192399382591248
      ],
      "type": "VEC3"
    },
    {
      "bufferView": 2,
      "byteOffset": 786384,
      "componentType": 5126,
      "count": 65532,
      "max": [
        0.9999991655349731,
        0.9999972581863403,
        0.9999998807907104
      ],
      "min": [
        -1.0,
        -0.9999991655349731,
        -0.9999984502792358
      ],
      "type": "VEC3"
    },
    {
      "bufferView": 1,
      "componentType": 5126,
      "count": 65532,
      "max": [
        0.9997559785842896,
        0.9606689810752869
      ],
      "min": [
        0.00024399999529123306,
        0.00024399999529123306
      ],
      "type": "VEC2"
    },
    {
      "bufferView": 0,
      "componentType": 5125,
      "count": 65538,
      "type": "SCALAR"
    },
    {
      "bufferView": 2,
      "byteOffset": 1572768,
      "componentType": 5126,
      "count": 65532,
      "max": [
        2.5538179874420166,
        1.8824050426483154,
        0.3897339999675751
      ],
      "min": [
        -2.2285420894622803,
        -1.8326129913330078,
        -0.1419229954481125
      ],
      "type": "VEC3"
    },
    {
      "bufferView": 2,
      "byteOffset": 2359152,
      "componentType": 5126,
      "count": 65532,
      "max": [
        0.999998927116394,
        0.9999982118606567,
        0.9999998807907104
      ],
      "min": [
        -0.9999892711639404,
        -0.9999679327011108,
        -0.9998453259468079
      ],
      "type": "VEC3"
    },
    {
      "bufferView": 1,
      "byteOffset": 524256,
      "componentType": 5126,
      "count": 65532,
      "max": [
        0.9997559785842896,
        0.8776090145111084
      ],
      "min": [
        0.00024399999529123306,
        0.00024399999529123306
      ],
      "type": "VEC2"
    },
    {
      "bufferView": 0,
      "byteOffset": 262152,
      "componentType": 5125,
      "count": 65538,
      "type": "SCALAR"
    },
    {
      "bufferView": 2,
      "byteOffset": 3145536,
      "componentType": 5126,
      "count": 65533,
      "max": [
        2.5538179874420166,
        1.8823360204696655,
        0.2554579973220825
      ],
      "min": [
        -2.2287559509277344,
        -1.8324860334396362,
        -0.14192399382591248
      ],
      "type": "VEC3"
    },
    {
      "bufferView": 2,
      "byteOffset": 3931932,
      "componentType": 5126,
      "count": 65533,
      "max": [
        0.9999994039535522,
        0.9999964237213135,
        0.9999997615814209
      ],
      "min": [
        -0.9999969005584717,
        -0.9999988079071045,
        -1.0
      ],
      "type": "VEC3"
    },
    {
      "bufferView": 1,
      "byteOffset": 1048512,
      "componentType": 5126,
      "count": 65533,
      "max": [
        0.9997559785842896,
        0.9606930017471313
      ],
      "min": [
        0.0002229999954579398,
        0.00024399999529123306
      ],
      "type": "VEC2"
    },
    {
      "bufferView": 0,
      "byteOffset": 524304,
      "componentType": 5125,
      "count": 65541,
      "type": "SCALAR"
    },
    {
      "bufferView": 2,
      "byteOffset": 4718328,
      "componentType": 5126,
      "count": 65532,
      "max": [
        -0.42592498660087585,
        1.8823360204696655,
        0.217071995139122
      ],
      "min": [
        -2.2285420894622803,
        -1.8326129913330078,
        -0.14192399382591248
      ],
      "type": "VEC3"
    },
    {
      "bufferView": 2,
      "byteOffset": 5504712,
      "componentType": 5126,
      "count": 65532,
      "max": [
        0.9999995231628418,
        0.9999973773956299,
        0.9999994039535522
      ],
      "min": [
        -0.9999964237213135,
        -0.9999992847442627,
        -1.0
      ],
      "type": "VEC3"
    },
    {
      "bufferView": 1,
      "byteOffset": 1572776,
      "componentType": 5126,
      "count": 65532,
      "max": [
        0.9997559785842896,
        0.8854929804801941
      ],
      "min": [
        0.00024399999529123306,
        0.00024399999529123306
      ],
      "type": "VEC2"
    },
    {
      "bufferView": 0,
      "byteOffset": 786468,
      "componentType": 5125,
      "count": 65538,
      "type": "SCALAR"
    },
    {
      "bufferView": 2,
      "byteOffset": 6291096,
      "componentType": 5126,
      "count": 65534,
      "max": [
        1.8575199842453003,
        1.8823720216751099,
        0.23641200363636017
      ],
      "min": [
        -2.2269999980926514,
        -1.8320419788360596,
        -0.14192399382591248
      ],
      "type": "VEC3"
    },
    {
      "bufferView": 2,
      "byteOffset": 7077504,
      "componentType": 5126,
      "count": 65534,
      "max": [
        0.9999983310699463,
        0.9999971389770508,
        0.9999998807907104
      ],
      "min": [
        -0.9999946355819702,
        -0.9999990463256836,
        -1.0
      ],
      "type": "VEC3"
    },
    {
      "bufferView": 1,
      "byteOffset": 2097032,
      "componentType": 5126,
      "count": 65534,
      "max": [
        0.9997559785842896,
        0.7810059785842896
      ],
      "min": [
        0.00024399999529123306,
        0.00024399999529123306
      ],
      "type": "VEC2"
    },
    {
      "bufferView": 0,
      "byteOffset": 1048620,
      "componentType": 5125,
      "count": 65535,
      "type": "SCALAR"
    },
    {
      "bufferView": 2,
      "byteOffset": 7863912,
      "componentType": 5126,
      "count": 18468,
      "max": [
        2.244837999343872,
        0.03632500022649765,
        0.1385740041732788
      ],
      "min": [
        0.18842299282550812,
        -1.8318129777908325,
        -0.1419229954481125
      ],
      "type": "VEC3"
    },
    {
      "bufferView": 2,
      "byteOffset": 8085528,
      "componentType": 5126,
      "count": 18468,
      "max": [
        0.9998818635940552,
        0.9999889135360718,
        1.0
      ],
      "min": [
        -0.9997875094413757,
        -0.9999997615814209,
        -0.9985835552215576
      ],
      "type": "VEC3"
    },
    {
      "bufferView": 1,
      "byteOffset": 2621304,
      "componentType": 5126,
      "count": 18468,
      "max": [
        0.9997559785842896,
        0.7809780240058899
      ],
      "min": [
        0.00024399999529123306,
        0.00024399999529123306
      ],
      "type": "VEC2"
    },
    {
      "bufferView": 0,
      "byteOffset": 1310760,
      "componentType": 5125,
      "count": 18468,
      "type": "SCALAR"
    }
  ],
  "asset": {
    "extras": {
      "author": "otogstudio (https://sketchfab.com/otogstudio)",
      "license": "CC-BY-4.0 (http://creativecommons.org/licenses/by/4.0/)",
      "source": "https://sketchfab.com/3d-models/zavod-mesh-website-model-32c6e5fe077c48c19d66a2cfff968a51",
      "title": "zavod-mesh-website-model"
    },
    "generator": "Sketchfab-10.65.0",
    "version": "2.0"
  },
  "bufferViews": [
    {
      "buffer": 0,
      "byteLength": 1384632,
      "name": "floatBufferViews",
      "target": 34963
    },
    {
      "buffer": 0,
      "byteLength": 2769048,
      "byteOffset": 1384632,
      "byteStride": 8,
      "name": "floatBufferViews",
      "target": 34962
    },
    {
      "buffer": 0,
      "byteLength": 8307144,
      "byteOffset": 4153680,
      "byteStride": 12,
      "name": "floatBufferViews",
      "target": 34962
    }
  ],
  "buffers": [
    {
      "byteLength": 12460824,
      "uri": "scene.bin"
    }
  ],
  "materials": [
    {
      "doubleSided": true,
      "name": "Dron-v07_Material_u1_v1",
      "pbrMetallicRoughness": {
        "metallicFactor": 0.49420482614478434,
        "roughnessFactor": 0.0
      }
    }
  ],
  "meshes": [
    {
      "name": "Object_0",
      "primitives": [
        {
          "attributes": {
            "NORMAL": 1,
            "POSITION": 0,
            "TEXCOORD_0": 2
          },
          "indices": 3,
          "material": 0,
          "mode": 4
        }
      ]
    },
    {
      "name": "Object_1",
      "primitives": [
        {
          "attributes": {
            "NORMAL": 5,
            "POSITION": 4,
            "TEXCOORD_0": 6
          },
          "indices": 7,
          "material": 0,
          "mode": 4
        }
      ]
    },
    {
      "name": "Object_2",
      "primitives": [
        {
          "attributes": {
            "NORMAL": 9,
            "POSITION": 8,
            "TEXCOORD_0": 10
          },
          "indices": 11,
          "material": 0,
          "mode": 4
        }
      ]
    },
    {
      "name": "Object_3",
      "primitives": [
        {
          "attributes": {
            "NORMAL": 13,
            "POSITION": 12,
            "TEXCOORD_0": 14
          },
          "indices": 15,
          "material": 0,
          "mode": 4
        }
      ]
    },
    {
      "name": "Object_4",
      "primitives": [
        {
          "attributes": {
            "NORMAL": 17,
            "POSITION": 16,
            "TEXCOORD_0": 18
          },
          "indices": 19,
          "material": 0,
          "mode": 4
        }
      ]
    },
    {
      "name": "Object_5",
      "primitives": [
        {
          "attributes": {
            "NORMAL": 21,
            "POSITION": 20,
            "TEXCOORD_0": 22
          },
          "indices": 23,
          "material": 0,
          "mode": 4
        }
      ]
    }
  ],
  "nodes": [
    {
      "children": [
        1
      ],
      "matrix": [
        1.0,
        0.0,
        0.0,
        0.0,
        0.0,
        2.220446049250313e-16,
        -1.0,
        0.0,
        0.0,
        1.0,
        2.220446049250313e-16,
        0.0,
        0.0,
        0.0,
        0.0,
        1.0
      ],
      "name": "Sketchfab_model"
    },
    {
      "children": [
        2,
        3,
        4,
        5,
        6,
        7
      ],
      "name": "ZAVOD.obj.cleaner.materialmerger.gles"
    },
    {
      "mesh": 0,
      "name": "Object_2"
    },
    {
      "mesh": 1,
      "name": "Object_3"
    },
    {
      "mesh": 2,
      "name": "Object_4"
    },
    {
      "mesh": 3,
      "name": "Object_5"
    },
    {
      "mesh": 4,
      "name": "Object_6"
    },
    {
      "mesh": 5,
      "name": "Object_7"
    }
  ],
  "scene": 0,
  "scenes": [
    {
      "name": "Sketchfab_Scene",
      "nodes": [
        0
      ]
    }
  ]
}
